<?xml version="1.0" encoding="UTF-8" standalone="no"?>
<!-- Created with Inkscape (http://www.inkscape.org/) -->

<svg
   xmlns:svg="http://www.w3.org/2000/svg"
   xmlns="http://www.w3.org/2000/svg"
   version="1.1"
   width="625.71423"
   height="625.71423"
   id="svg2">
  <defs
     id="defs4" />
  <g
     transform="translate(-48.571422,-43.790761)"
     id="layer1">
    <g
       transform="matrix(1.1238263,0,0,1.1238263,-38.946929,-5.3062462)"
       id="layer1-2">
      <path
         d="m 289.72975,586.33338 c -9.92283,-2.92974 -24.76561,-7.39168 -32.98394,-9.91545 -24.04594,-7.38431 -72.82656,-42.46947 -99.48328,-71.55275 -25.05833,-27.3394 -59.975647,-90.23794 -59.975647,-108.03752 0,-4.71617 -1.930931,-13.65359 -4.290965,-19.86092 C 90.635899,370.7594 88.497454,347.639 88.243837,325.58809 87.373957,249.95571 113.14764,187.2866 167.38919,133.14491 224.39896,76.240084 277.24459,53.914413 355.882,53.512427 c 49.51015,-0.253085 80.62467,6.515431 120.20829,26.149546 68.31425,33.884997 121.84309,98.559747 142.11216,171.703067 10.18297,36.7465 11.31637,104.17726 2.33934,139.17707 -23.78015,92.71471 -101.82753,171.632 -193.14093,195.29369 -30.40895,7.87974 -111.67335,8.17345 -137.67111,0.49758 z M 438.07115,572.6681 C 548.60184,537.38386 624.36685,425.97934 617.01429,309.55089 614.29442,266.48144 606.68131,238.94117 587.18223,201.63421 552.75183,135.75952 496.0068,90.408242 423.40216,70.73936 383.07696,59.81511 317.8518,61.458576 277.70208,74.410551 220.7103,92.795618 160.08062,142.20168 131.25401,193.74847 c -49.988457,89.38772 -44.464852,197.95247 14.3312,281.67503 33.78495,48.10799 92.02974,87.83406 150.42487,102.5978 33.65922,8.50991 107.33016,5.7338 142.06107,-5.3532 z M 331.82663,551.70245 C 245.42978,541.66235 169.26722,479.81882 140.70496,396.51279 128.37011,360.53641 127.63042,294.01128 139.13624,255.42632 c 20.38055,-68.34659 79.06095,-127.9429 147.9094,-150.21804 64.90582,-20.999535 136.84195,-11.469402 194.96703,25.82935 26.38191,16.92924 31.09024,25.30156 20.298,36.09382 -10.25047,10.25047 -5.97865,9.93164 -134.40098,10.0311 -104.0873,0.0807 -109.09691,0.44117 -130.29987,9.37745 -31.95308,13.46707 -65.89142,48.84018 -46.85916,48.84018 2.89342,0 12.57367,-3.53319 21.51165,-7.85156 8.93799,-4.31835 28.22046,-9.07789 42.84994,-10.57672 l 26.59905,-2.72515 -0.28526,29.62055 c -0.74046,76.89034 -17.69996,160.33666 -42.58268,209.52081 -12.76881,25.23928 -8.73724,30.2804 17.73553,22.17654 l 19.11858,-5.85258 10.72831,-31.95987 c 13.52582,-40.29373 19.7584,-83.93156 22.88844,-160.25513 l 2.46628,-60.1384 43.5221,-1.14224 c 28.65299,-0.752 45.4322,0.44303 49.11302,3.49783 4.5214,3.75243 5.60778,25.06228 5.67898,111.39597 0.0792,96.07028 0.84773,108.42905 7.67762,123.47166 8.96276,19.74016 17.91516,25.38113 40.28059,25.38113 18.87784,0 33.97941,-6.7988 47.68009,-21.4658 13.47898,-14.42968 9.13061,-22.49319 -10.69572,-19.83392 -37.5658,5.03863 -41.71584,-8.10473 -40.1282,-127.0878 l 1.20369,-90.2076 12.02768,-1.03002 c 30.26537,-2.59186 42.06412,-8.74891 48.74042,-25.43462 4.94933,-12.36959 8.3152,-15.77536 14.6669,-14.84069 10.41037,1.53193 28.95364,32.28934 41.44956,68.75165 12.97505,37.86033 13.46397,109.14445 1.01028,147.2952 -33.06663,101.29651 -136.68004,167.87316 -242.18088,155.61303 z m 86.59701,-17.31028 c 67.1245,-20.35389 121.40004,-72.68214 145.86339,-140.63016 8.27042,-22.97153 10.09783,-35.36737 10.09783,-68.497 0,-45.39598 -7.92243,-76.35343 -29.0519,-113.52241 -11.32503,-19.9219 -12.72364,-21.05045 -17.6829,-14.26832 -2.96182,4.05057 -5.38515,9.66258 -5.38515,12.47115 0,7.51592 -14.75055,14.12551 -37.80344,16.93938 l -20.33035,2.48154 -1.08185,85.13444 c -1.37406,108.12695 3.80527,124.85346 35.26476,113.88663 10.3379,-3.60382 13.45043,-3.04633 20.09629,3.59954 10.25596,10.25594 9.93017,14.42085 -2.39151,30.57543 -22.44966,29.43302 -66.32684,38.66891 -89.81441,18.90542 -25.06822,-21.09351 -26.29101,-28.06611 -25.57597,-145.84121 0.46673,-76.87976 -0.64093,-107.04691 -4.00923,-109.19004 -2.55979,-1.62869 -20.40611,-2.98889 -39.65852,-3.02266 -41.68525,-0.0731 -37.73809,-7.81232 -40.86438,80.12315 -2.55298,71.80914 -12.27411,127.8854 -27.8655,160.7418 -5.60986,11.82192 -10.46996,15.44511 -28.22573,21.04211 -37.75908,11.90251 -47.73247,0.2177 -30.56988,-35.81579 24.18964,-50.78696 39.44445,-118.96489 41.18251,-184.05578 l 1.07053,-40.09227 -18.04151,1.09549 c -9.92285,0.60251 -28.37772,5.87766 -41.01085,11.72252 -22.33636,10.33419 -23.1926,10.42499 -31.07151,3.29468 -10.88384,-9.84975 -10.23389,-15.41039 3.64946,-31.22266 15.83446,-18.03447 45.34963,-33.4836 78.84189,-41.26824 23.36618,-5.43104 42.40345,-5.98765 122.18611,-3.57255 70.9534,2.14785 96.76619,1.65203 103.5702,-1.98938 8.51565,-4.55742 8.65981,-5.2955 2.38842,-12.2253 -9.18678,-10.15132 -55.88367,-33.74991 -80.18927,-40.52422 -11.44488,-3.18985 -36.38849,-5.3942 -58.13378,-5.13749 -96.00472,1.13336 -174.38264,59.68828 -205.28748,153.36705 -10.54049,31.95037 -9.96295,99.05169 1.14376,132.8844 25.53347,77.77884 89.42908,132.90842 172.0699,148.46314 23.13437,4.35438 72.90054,1.33997 96.62007,-5.85239 z"
         id="path2890"
         style="fill:#000000" />
    </g>
  </g>
</svg>
