<?xml version="1.0" encoding="UTF-8" standalone="no"?>
<!-- Created with Inkscape (http://www.inkscape.org/) -->

<svg
   xmlns:svg="http://www.w3.org/2000/svg"
   xmlns="http://www.w3.org/2000/svg"
   version="1.1"
   width="625.71423"
   height="625.71423"
   id="svg2">
  <defs
     id="defs4" />
  <g
     transform="translate(-48.571422,-43.790761)"
     id="layer1">
    <g
       transform="matrix(1.0445407,0,0,1.0428571,-55.365703,25.46834)"
       id="layer1-3">
      <path
         d="m 336.19676,581.28261 c -9.92283,-2.92974 -24.76561,-7.39168 -32.98394,-9.91545 -24.04594,-7.38431 -72.82656,-42.46947 -99.48328,-71.55275 -25.05833,-27.3394 -59.97564,-90.23794 -59.97564,-108.03752 0,-4.71617 -1.93093,-13.65359 -4.29096,-19.86092 -2.36002,-6.20734 -4.49847,-29.32774 -4.75209,-51.37865 -0.86988,-75.63238 24.9038,-138.30149 79.14535,-192.44318 57.00977,-56.904821 109.8554,-79.230491 188.49281,-79.632481 49.51015,-0.25308 80.62467,6.51543 120.20829,26.14955 68.31425,33.884991 121.84309,98.559741 142.11216,171.703061 10.18297,36.7465 11.31637,104.17726 2.33934,139.17707 -23.78015,92.71471 -101.82753,171.632 -193.14093,195.29369 -30.40895,7.87974 -111.67335,8.17345 -137.67111,0.49758 z m 148.3414,-13.66528 C 595.06885,532.33309 670.83386,420.92857 663.4813,304.50012 660.76143,261.43067 653.14832,233.8904 633.64924,196.58344 599.21884,130.70875 542.47381,85.357479 469.86917,65.688589 429.54397,54.764339 364.31881,56.407809 324.16909,69.359779 267.17731,87.744849 206.54763,137.15091 177.72102,188.6977 c -49.98845,89.38772 -44.46484,197.95247 14.3312,281.67503 33.78495,48.10799 92.02974,87.83406 150.42487,102.5978 33.65922,8.50991 107.33016,5.7338 142.06107,-5.3532 z M 378.29364,546.65168 C 291.89679,536.61158 215.73423,474.76805 187.17197,391.46202 174.83712,355.48564 174.09743,288.96051 185.60325,250.37555 205.9838,182.02896 264.6642,122.43265 333.51265,100.15751 398.41847,79.157979 470.3546,88.688109 528.47968,125.98686 c 26.38191,16.92924 31.09024,25.30156 20.298,36.09382 -10.25047,10.25047 -5.97865,9.93164 -134.40098,10.0311 -104.0873,0.0807 -109.09691,0.44117 -130.29987,9.37745 -31.95308,13.46707 -65.89142,48.84018 -46.85916,48.84018 2.89342,0 12.57367,-3.53319 21.51165,-7.85156 8.93799,-4.31835 28.22046,-9.07789 42.84994,-10.57672 l 26.59905,-2.72515 -0.28526,29.62055 c -0.74046,76.89034 -17.69996,160.33666 -42.58268,209.52081 -12.76881,25.23928 -8.73724,30.2804 17.73553,22.17654 l 19.11858,-5.85258 10.72831,-31.95987 c 13.52582,-40.29373 19.7584,-83.93156 22.88844,-160.25513 l 2.46628,-60.1384 43.5221,-1.14224 c 28.65299,-0.752 45.4322,0.44303 49.11302,3.49783 4.5214,3.75243 5.60778,25.06228 5.67898,111.39597 0.0792,96.07028 0.84773,108.42905 7.67762,123.47166 8.96276,19.74016 17.91516,25.38113 40.28059,25.38113 18.87784,0 33.97941,-6.7988 47.68009,-21.4658 13.47898,-14.42968 9.13061,-22.49319 -10.69572,-19.83392 -37.5658,5.03863 -41.71584,-8.10473 -40.1282,-127.0878 l 1.20369,-90.2076 12.02768,-1.03002 c 30.26537,-2.59186 42.06412,-8.74891 48.74042,-25.43462 4.94933,-12.36959 8.3152,-15.77536 14.6669,-14.84069 10.41037,1.53193 28.95364,32.28934 41.44956,68.75165 12.97505,37.86033 13.46397,109.14445 1.01028,147.2952 -33.06663,101.29651 -136.68004,167.87316 -242.18088,155.61303 z m 86.59701,-17.31028 c 67.1245,-20.35389 121.40004,-72.68214 145.86339,-140.63016 8.27042,-22.97153 10.09783,-35.36737 10.09783,-68.497 0,-45.39598 -7.92243,-76.35343 -29.0519,-113.52241 -11.32503,-19.9219 -12.72364,-21.05045 -17.6829,-14.26832 -2.96182,4.05057 -5.38515,9.66258 -5.38515,12.47115 0,7.51592 -14.75055,14.12551 -37.80344,16.93938 l -20.33035,2.48154 -1.08185,85.13444 c -1.37406,108.12695 3.80527,124.85346 35.26476,113.88663 10.3379,-3.60382 13.45043,-3.04633 20.09629,3.59954 10.25596,10.25594 9.93017,14.42085 -2.39151,30.57543 -22.44966,29.43302 -66.32684,38.66891 -89.81441,18.90542 -25.06822,-21.09351 -26.29101,-28.06611 -25.57597,-145.84121 0.46673,-76.87976 -0.64093,-107.04691 -4.00923,-109.19004 -2.55979,-1.62869 -20.40611,-2.98889 -39.65852,-3.02266 -41.68525,-0.0731 -37.73809,-7.81232 -40.86438,80.12315 -2.55298,71.80914 -12.27411,127.8854 -27.8655,160.7418 -5.60986,11.82192 -10.46996,15.44511 -28.22573,21.04211 -37.75908,11.90251 -47.73247,0.2177 -30.56988,-35.81579 24.18964,-50.78696 39.44445,-118.96489 41.18251,-184.05578 l 1.07053,-40.09227 -18.04151,1.09549 c -9.92285,0.60251 -28.37772,5.87766 -41.01085,11.72252 -22.33636,10.33419 -23.1926,10.42499 -31.07151,3.29468 -10.88384,-9.84975 -10.23389,-15.41039 3.64946,-31.22266 15.83446,-18.03447 45.34963,-33.4836 78.84189,-41.26824 23.36618,-5.43104 42.40345,-5.98765 122.18611,-3.57255 70.9534,2.14785 96.76619,1.65203 103.5702,-1.98938 8.51565,-4.55742 8.65981,-5.2955 2.38842,-12.2253 -9.18678,-10.15132 -55.88367,-33.74991 -80.18927,-40.52422 -11.44488,-3.18985 -36.38849,-5.3942 -58.13378,-5.13749 -96.00472,1.13336 -174.38264,59.68828 -205.28748,153.36705 -10.54049,31.95037 -9.96295,99.05169 1.14376,132.8844 25.53347,77.77884 89.42908,132.90842 172.0699,148.46314 23.13437,4.35438 72.90054,1.33997 96.62007,-5.85239 z"
         id="path2890"
         style="fill:#000000;fill-opacity:1;stroke:none" />
      <g
         id="g4447">
        <rect
           width="599.0694"
           height="599.0694"
           x="99.970398"
           y="19.972023"
           id="rect4445"
           style="fill:#000000;fill-opacity:1;stroke:#000000;stroke-width:0.9305976;stroke-miterlimit:4;stroke-opacity:0;stroke-dasharray:none" />
        <path
           d="m 370.79761,576.50847 c -24.78838,-1.91236 -49.65138,-9.15149 -76.08272,-22.15231 -48.20753,-23.71191 -84.6713,-55.83338 -110.44566,-97.2932 -40.86147,-65.72845 -50.75878,-144.29396 -27.47725,-218.11627 6.56921,-20.82999 18.57828,-46.46681 29.24016,-62.42156 22.29511,-33.36303 57.00099,-65.18497 94.68863,-86.820342 26.29084,-15.092809 48.11352,-22.710136 78.76042,-27.491759 19.69033,-3.072146 69.47517,-3.336636 87.58294,-0.465298 45.08778,7.149539 90.59691,28.299318 125.15502,58.164169 26.45205,22.85965 46.91538,49.52404 63.61976,82.89865 14.43561,28.84169 20.31203,47.35717 25.06833,78.98552 2.48971,16.55598 2.44217,58.70746 -0.0835,74.0526 -8.64194,52.50538 -29.74321,97.85172 -63.22304,135.86551 -8.47113,9.61832 -24.71009,25.20805 -33.86393,32.51005 -30.0513,23.97186 -70.40858,42.94596 -102.53048,48.20503 -24.49741,4.01077 -66.64545,5.91247 -90.40866,4.07921 l 2e-5,0 z m 55.85074,-29.27091 c 88.28144,-9.40639 165.70354,-70.88449 193.12196,-153.3512 12.49069,-37.56841 13.59099,-101.55223 2.44335,-142.08341 -7.73759,-28.13277 -24.81988,-61.75847 -37.07654,-72.98352 -3.83262,-3.51004 -5.40376,-4.29315 -8.61314,-4.29315 -5.1979,0 -7.84107,2.73875 -13.07718,13.55011 -9.52321,19.66315 -16.75244,23.20346 -55.89791,27.37428 l -5.68021,0.60522 -0.72682,72.92685 c -0.8939,89.69215 0.0731,111.60539 5.68598,128.84228 1.43964,4.4211 3.38919,7.76261 6.26588,10.73964 5.54322,5.73655 10.56513,6.80238 27.91398,5.92432 11.21267,-0.56748 13.37941,-0.42413 15.60215,1.03227 3.90947,2.56158 3.38264,6.39471 -1.85719,13.51251 -12.4311,16.88646 -33.31223,26.47042 -54.77435,25.14021 -17.5691,-1.08892 -26.31333,-6.88448 -33.73756,-22.36081 -7.89088,-16.44908 -7.99181,-17.80714 -9.04614,-121.72338 -0.88097,-86.82909 -1.68248,-107.46377 -4.39396,-113.12109 -2.6207,-5.46791 -3.56208,-5.57184 -50.47281,-5.57184 -33.67442,0 -43.3948,0.28119 -44.00764,1.27303 -0.43262,0.70016 -1.34063,15.92821 -2.01782,33.84011 -3.9682,104.96048 -8.69446,139.06085 -26.99734,194.78806 l -7.4949,22.81993 -10.35653,3.159 c -20.892,6.37257 -26.22356,7.29456 -30.1209,5.20877 -3.85735,-2.06439 -2.57755,-8.0137 5.73491,-26.65935 8.98961,-20.16457 14.05084,-33.9052 19.50758,-52.96062 13.42133,-46.86856 20.33388,-96.54718 21.9123,-157.47781 0.68106,-26.29097 0.66927,-26.5165 -1.38611,-26.5165 -3.35835,0 -29.52023,2.97739 -36.10583,4.10909 -11.43705,1.96537 -23.24389,5.30475 -32.82995,9.28544 -18.07976,7.50777 -23.30074,8.62029 -25.43663,5.42018 -1.13392,-1.6989 1.93646,-7.67816 6.9656,-13.56484 9.4562,-11.0686 25.38186,-22.62293 42.18097,-30.60298 21.26518,-10.10157 20.58539,-10.04907 142.96523,-11.04131 61.29046,-0.49695 105.68729,-1.25303 108.80133,-1.85291 7.91824,-1.52535 12.2194,-3.98856 16.56559,-9.48689 9.54521,-12.07561 2.32524,-21.8243 -30.23664,-40.82669 -39.51537,-23.060301 -87.0751,-34.169466 -132.17281,-30.873382 -54.78868,4.004375 -102.4773,25.481582 -142.39266,64.128452 -19.6092,18.98603 -33.99499,38.23619 -45.63242,61.06245 -16.14867,31.67485 -21.19107,53.44947 -22.13762,95.59715 -1.1614,51.7141 5.65744,82.8571 26.09187,119.16679 14.22852,25.28251 36.08877,51.0681 57.97372,68.3838 36.31304,28.7314 78.33393,45.80237 122.73353,49.86044 8.61971,0.78783 33.26214,0.55509 42.21368,-0.3987 l 0,0 z"
           id="path4443"
           style="fill:#ffffff;fill-opacity:1;stroke:#000000;stroke-width:1.01015258;stroke-miterlimit:4;stroke-opacity:0;stroke-dasharray:none" />
      </g>
    </g>
  </g>
</svg>
